<svg width="15" height="14" viewBox="0 0 15 14" fill="none" xmlns="http://www.w3.org/2000/svg">
<path fill-rule="evenodd" clip-rule="evenodd" d="M10.0667 7.00016C10.0667 8.47292 8.87282 9.66683 7.40007 9.66683C5.92731 9.66683 4.7334 8.47292 4.7334 7.00016C4.7334 5.5274 5.92731 4.3335 7.40007 4.3335C8.87282 4.3335 10.0667 5.5274 10.0667 7.00016ZM8.7334 7.00016C8.7334 7.73654 8.13645 8.3335 7.40007 8.3335C6.66369 8.3335 6.06673 7.73654 6.06673 7.00016C6.06673 6.26378 6.66369 5.66683 7.40007 5.66683C8.13645 5.66683 8.7334 6.26378 8.7334 7.00016Z" fill="#FCFCFD"/>
<path fill-rule="evenodd" clip-rule="evenodd" d="M14.0667 7.00016C14.0667 10.6821 11.082 13.6668 7.40007 13.6668C3.71817 13.6668 0.733398 10.6821 0.733398 7.00016C0.733398 3.31826 3.71817 0.333496 7.40007 0.333496C11.082 0.333496 14.0667 3.31826 14.0667 7.00016ZM12.7334 7.00016C12.7334 9.94568 10.3456 12.3335 7.40007 12.3335C4.45455 12.3335 2.06673 9.94568 2.06673 7.00016C2.06673 4.05464 4.45455 1.66683 7.40007 1.66683C10.3456 1.66683 12.7334 4.05464 12.7334 7.00016Z" fill="#FCFCFD"/>
</svg>
