<svg width="14" height="16" viewBox="0 0 14 16" fill="none" xmlns="http://www.w3.org/2000/svg">
<path fill-rule="evenodd" clip-rule="evenodd" d="M8.66683 3.1665C8.66683 1.78579 9.78612 0.666504 11.1668 0.666504C12.5475 0.666504 13.6668 1.78579 13.6668 3.1665V8.1665C13.6668 9.54722 12.5475 10.6665 11.1668 10.6665C9.78612 10.6665 8.66683 9.54722 8.66683 8.1665V3.1665ZM12.0002 3.1665V8.1665C12.0002 8.62674 11.6271 8.99984 11.1668 8.99984C10.7066 8.99984 10.3335 8.62674 10.3335 8.1665V3.1665C10.3335 2.70627 10.7066 2.33317 11.1668 2.33317C11.6271 2.33317 12.0002 2.70627 12.0002 3.1665Z" fill="#777E91"/>
<path fill-rule="evenodd" clip-rule="evenodd" d="M0.333496 11.4998C0.333496 10.1191 1.45278 8.99984 2.8335 8.99984C4.21421 8.99984 5.3335 10.1191 5.3335 11.4998V13.1665C5.3335 14.5472 4.21421 15.6665 2.8335 15.6665C1.45278 15.6665 0.333496 14.5472 0.333496 13.1665V11.4998ZM3.66683 11.4998V13.1665C3.66683 13.6267 3.29373 13.9998 2.8335 13.9998C2.37326 13.9998 2.00016 13.6267 2.00016 13.1665V11.4998C2.00016 11.0396 2.37326 10.6665 2.8335 10.6665C3.29373 10.6665 3.66683 11.0396 3.66683 11.4998Z" fill="#777E91"/>
</svg>
