<svg width="24" height="24" viewBox="0 0 24 24" fill="none" xmlns="http://www.w3.org/2000/svg">
<path fill-rule="evenodd" clip-rule="evenodd" d="M12 22C17.5228 22 22 17.5228 22 12C22 6.47715 17.5228 2 12 2C6.47715 2 2 6.47715 2 12C2 17.5228 6.47715 22 12 22ZM18.3198 16.9057C19.3729 15.551 20 13.8488 20 12C20 7.92038 16.9463 4.55399 13 4.06189V8.12602C14.7252 8.57006 16 10.1362 16 12C16 12.7418 15.798 13.4365 15.4461 14.0321L18.3198 16.9057ZM16.9056 18.3199L14.0319 15.4462C13.4364 15.7981 12.7418 16 12 16C11.2582 16 10.5636 15.7981 9.96813 15.4462L7.09444 18.3199C8.44911 19.3729 10.1513 20 12 20C13.8487 20 15.5509 19.3729 16.9056 18.3199ZM8 12C8 12.7418 8.20195 13.4365 8.55388 14.0321L5.68021 16.9057C4.62711 15.551 4 13.8488 4 12C4 7.92038 7.05369 4.55399 11 4.06189V8.12602C9.27477 8.57006 8 10.1362 8 12ZM12 14C13.1046 14 14 13.1046 14 12C14 10.8954 13.1046 10 12 10C10.8954 10 10 10.8954 10 12C10 13.1046 10.8954 14 12 14Z" fill="#777E91"/>
</svg>
