<svg width="24" height="24" viewBox="0 0 24 24" fill="none" xmlns="http://www.w3.org/2000/svg">
<path fill-rule="evenodd" clip-rule="evenodd" d="M13.2863 3.50476C15.559 3.80779 17.4603 5.37957 18.1854 7.55476L19.7934 12.3787L21.2934 13.8787C22.465 15.0503 22.465 16.9497 21.2934 18.1213L18.1218 21.2929C16.9502 22.4645 15.0507 22.4645 13.8792 21.2929L12.3792 19.7929L7.55525 18.1849C5.38006 17.4598 3.80828 15.5585 3.50525 13.2858L2.34613 4.59242C2.17197 3.28619 3.28668 2.17148 4.59291 2.34564L13.2863 3.50476ZM14.2076 18.7929L15.2934 19.8787C15.6839 20.2692 16.3171 20.2692 16.7076 19.8787L19.8792 16.7071C20.2697 16.3166 20.2697 15.6834 19.8792 15.2929L18.7934 14.2071L14.2076 18.7929ZM12.4603 17.7117L17.7122 12.4598L16.288 8.18721C15.8047 6.73709 14.5371 5.68923 13.022 5.48721L4.32859 4.3281L5.4877 13.0215C5.68972 14.5366 6.73758 15.8042 8.1877 16.2875L12.4603 17.7117Z" fill="#777E91"/>
<path d="M10.4824 9.06772L3.80972 2.39502C3.12335 2.57918 2.57967 3.12286 2.39551 3.80923L9.06814 10.4819C9.02393 10.6471 9.00037 10.8208 9.00037 11C9.00037 12.1046 9.8958 13 11.0004 13C12.1049 13 13.0004 12.1046 13.0004 11C13.0004 9.89543 12.1049 9 11.0004 9C10.8212 9 10.6476 9.02355 10.4824 9.06772Z" fill="#777E91"/>
</svg>
