<svg width="24" height="24" viewBox="0 0 24 24" fill="none" xmlns="http://www.w3.org/2000/svg">
<path fill-rule="evenodd" clip-rule="evenodd" d="M18 1C19.6569 1 21 2.34315 21 4V8C21 8.55228 20.5523 9 20 9C19.4477 9 19 8.55228 19 8V7H15V21H16C16.5523 21 17 21.4477 17 22C17 22.5523 16.5523 23 16 23H8C7.44772 23 7 22.5523 7 22C7 21.4477 7.44772 21 8 21H9V7H5V8C5 8.55228 4.55228 9 4 9C3.44772 9 3 8.55228 3 8V4C3 2.34315 4.34315 1 6 1H18ZM19 5V4C19 3.44772 18.5523 3 18 3H6C5.44772 3 5 3.44772 5 4V5H11V21H13V5H19Z" fill="#777E91"/>
</svg>
