<svg width="24" height="24" viewBox="0 0 24 24" fill="none" xmlns="http://www.w3.org/2000/svg">
<path fill-rule="evenodd" clip-rule="evenodd" d="M4.42835 19.5719C6.29546 19.0573 8.69091 18.0988 10.8789 16.7973C12.4324 15.8732 13.7672 14.8417 14.6906 13.7833C15.6217 12.716 16.0002 11.7817 16.0002 11C16.0002 9.9545 15.6604 9.23866 15.211 8.78921C14.7615 8.33977 14.0457 8 13.0002 8C12.2185 8 11.2842 8.37844 10.2169 9.30959C9.15851 10.233 8.12707 11.5678 7.20298 13.1213C5.90145 15.3093 4.94295 17.7048 4.42835 19.5719ZM2.02211 21.5045C2.38602 17.0954 7.2308 6 13.0002 6C16.0002 6 18.0002 8 18.0002 11C18.0002 16.7694 6.9049 21.6143 2.49572 21.9781C2.22052 22.0008 1.9994 21.7797 2.02211 21.5045Z" fill="#777E91"/>
<path d="M16 2C16.5523 2 17 2.44772 17 3V5.58579L19.2929 3.29289C19.6834 2.90237 20.3166 2.90237 20.7071 3.29289C21.0976 3.68342 21.0976 4.31658 20.7071 4.70711L18.4142 7H21C21.5523 7 22 7.44772 22 8C22 8.55228 21.5523 9 21 9H16C15.7249 9 15.4758 8.88894 15.295 8.70922C15.2936 8.70781 15.2922 8.7064 15.2908 8.70498C15.196 8.6096 15.1243 8.49986 15.0759 8.38278C15.027 8.26488 15 8.13559 15 8V3C15 2.44772 15.4477 2 16 2Z" fill="#777E91"/>
<path d="M9.79289 7.79289C10.1834 7.40237 10.8166 7.40237 11.2071 7.79289L12.7071 9.29289C13.0976 9.68342 13.0976 10.3166 12.7071 10.7071C12.3166 11.0976 11.6834 11.0976 11.2929 10.7071L9.79289 9.20711C9.40237 8.81658 9.40237 8.18342 9.79289 7.79289Z" fill="#777E91"/>
<path d="M4.79289 13.7929C5.18342 13.4024 5.81658 13.4024 6.20711 13.7929L7.70711 15.2929C8.09763 15.6834 8.09763 16.3166 7.70711 16.7071C7.31658 17.0976 6.68342 17.0976 6.29289 16.7071L4.79289 15.2071C4.40237 14.8166 4.40237 14.1834 4.79289 13.7929Z" fill="#777E91"/>
<path d="M11.7071 13.2929C11.3166 12.9024 10.6834 12.9024 10.2929 13.2929C9.90237 13.6834 9.90237 14.3166 10.2929 14.7071L12.2929 16.7071C12.6834 17.0976 13.3166 17.0976 13.7071 16.7071C14.0976 16.3166 14.0976 15.6834 13.7071 15.2929L11.7071 13.2929Z" fill="#777E91"/>
</svg>
