<svg width="24" height="24" viewBox="0 0 24 24" fill="none" xmlns="http://www.w3.org/2000/svg">
<path fill-rule="evenodd" clip-rule="evenodd" d="M19 12H14V20H19C19.5523 20 20 19.5523 20 19V13C20 12.4477 19.5523 12 19 12ZM12 10V22H19C20.6569 22 22 20.6569 22 19V13C22 11.3431 20.6569 10 19 10H12Z" fill="#777E91"/>
<path d="M18 15C18 14.4477 17.5523 14 17 14C16.4477 14 16 14.4477 16 15C16 15.5523 16.4477 16 17 16C17.5523 16 18 15.5523 18 15Z" fill="#777E91"/>
<path d="M18 18C18 17.4477 17.5523 17 17 17C16.4477 17 16 17.4477 16 18C16 18.5523 16.4477 19 17 19C17.5523 19 18 18.5523 18 18Z" fill="#777E91"/>
<path fill-rule="evenodd" clip-rule="evenodd" d="M5 22C3.34315 22 2 20.6569 2 19V5C2 3.34315 3.34315 2 5 2H11C12.6569 2 14 3.34315 14 5V22H5ZM5 4H11C11.5523 4 12 4.44772 12 5V20H10V19C10 18.4477 9.55229 18 9 18H7C6.44772 18 6 18.4477 6 19V20H5C4.44772 20 4 19.5523 4 19V5C4 4.44772 4.44771 4 5 4Z" fill="#777E91"/>
<path d="M9 6C9.55229 6 10 6.44772 10 7C10 7.55228 9.55228 8 9 8H7C6.44772 8 6 7.55228 6 7C6 6.44772 6.44772 6 7 6H9Z" fill="#777E91"/>
<path d="M9 10C9.55229 10 10 10.4477 10 11C10 11.5523 9.55228 12 9 12H7C6.44772 12 6 11.5523 6 11C6 10.4477 6.44772 10 7 10H9Z" fill="#777E91"/>
<path d="M10 15C10 14.4477 9.55229 14 9 14H7C6.44772 14 6 14.4477 6 15C6 15.5523 6.44772 16 7 16H9C9.55228 16 10 15.5523 10 15Z" fill="#777E91"/>
</svg>
