<svg width="11" height="10" viewBox="0 0 11 10" fill="none" xmlns="http://www.w3.org/2000/svg">
<path fill-rule="evenodd" clip-rule="evenodd" d="M5.3999 10C5.95219 10 6.3999 9.55228 6.3999 9V6H9.3999C9.95219 6 10.3999 5.55228 10.3999 5C10.3999 4.44771 9.95219 4 9.3999 4H6.3999V1C6.3999 0.447715 5.95219 0 5.3999 0C4.84762 0 4.3999 0.447715 4.3999 1V4H1.3999C0.847618 4 0.399902 4.44771 0.399902 5C0.399902 5.55228 0.847617 6 1.3999 6H4.3999V9C4.3999 9.55228 4.84762 10 5.3999 10Z" fill="#B1B5C4"/>
</svg>
