<svg width="20" height="16" viewBox="0 0 20 16" fill="none" xmlns="http://www.w3.org/2000/svg">
<path fill-rule="evenodd" clip-rule="evenodd" d="M10.5772 3.76422C10.2547 4.07365 9.7456 4.07365 9.42316 3.76422L8.84616 3.2105C8.1708 2.56239 7.25844 2.16667 6.25016 2.16667C4.17909 2.16667 2.50016 3.8456 2.50016 5.91667C2.50016 7.90219 3.57498 9.54171 5.12663 10.8888C6.67959 12.237 8.53633 13.1312 9.6457 13.5876C9.87766 13.683 10.1227 13.683 10.3546 13.5876C11.464 13.1312 13.3207 12.237 14.8737 10.8888C16.4253 9.54171 17.5002 7.90218 17.5002 5.91667C17.5002 3.8456 15.8212 2.16667 13.7502 2.16667C12.7419 2.16667 11.8295 2.56239 11.1542 3.2105L10.5772 3.76422ZM10.0002 2.00798C9.02692 1.074 7.70557 0.5 6.25016 0.5C3.25862 0.5 0.833496 2.92512 0.833496 5.91667C0.833496 11.2235 6.64211 14.1542 9.01165 15.1289C9.6498 15.3914 10.3505 15.3914 10.9887 15.1289C13.3582 14.1542 19.1668 11.2235 19.1668 5.91667C19.1668 2.92512 16.7417 0.5 13.7502 0.5C12.2948 0.5 10.9734 1.074 10.0002 2.00798Z" fill="#777E91"/>
</svg>
